#N canvas 598 209 742 582 10;
#X obj 41 93 gemwin;
#X msg 104 76 destroy;
#X obj 283 265 gemhead;
#X obj 283 328 cube;
#X msg 41 51 reset \, border 0 \, offset 100 100 \, dimen 400 300 \,
create \, 1;
#X connect 1 0 0 0;
#X connect 2 0 3 0;
#X connect 4 0 0 0;
