#N canvas 598 209 742 582 10;
#X obj 41 93 gemwin;
#X msg 104 76 destroy;
#X obj 283 175 gemhead;
#X obj 283 298 cube;
#X msg 41 51 reset \, border 0 \, offset 100 100 \, dimen 400 300 \,
create \, 1;
#X obj 283 234 colorRGB 1 0 0 1;
#X text 393 234 couleur : R G B A;
#X text 394 247 valeur de rouge \, de vert \, de bleu et d'alpha;
#X connect 1 0 0 0;
#X connect 2 0 5 0;
#X connect 4 0 0 0;
#X connect 5 0 3 0;
