#N canvas 537 125 647 476 10;
#X obj 41 93 gemwin;
#X msg 104 76 destroy;
#X obj 151 133 gemhead;
#X obj 151 396 cube;
#X msg 41 51 reset \, border 0 \, offset 100 100 \, dimen 400 300 \,
create \, 1;
#X obj 151 162 colorRGB 1 0 0 1;
#X obj 151 358 rotateXYZ 0 45 0;
#X text 255 353 rotation de 0 sur l'axes des X \, de 45° sur l'axe
des Y \, de 0 sur l'axe des Z;
#X floatatom 213 308 5 0 0 0 - - -;
#X text 253 302 <- on peut aussi faire tourner dynamiquement l'objet
en actionnant la boite nombre;
#X obj 171 219 gemmouse;
#X text 229 219 <- regardez l'aide de cet objet (clic droit sur l'objet
puis choisir 'aide');
#X obj 213 271 * -1;
#X connect 1 0 0 0;
#X connect 2 0 5 0;
#X connect 4 0 0 0;
#X connect 5 0 6 0;
#X connect 6 0 3 0;
#X connect 8 0 6 2;
#X connect 10 0 12 0;
#X connect 10 1 6 1;
#X connect 12 0 8 0;
