#N canvas 529 100 664 666 10;
#X obj 41 103 gemwin;
#X msg 104 86 destroy;
#X obj 151 133 gemhead;
#X obj 151 242 colorRGB 1 1 1 1;
#X text 262 241 blanc;
#X msg 41 51 reset \, FSAA 5 \, border 1 \, offset 100 100 \, dimen
400 300 \, create \, 1;
#X obj 151 183 alpha;
#X text 191 180 permet d'ajouter une couche alpha a notre chaine de
rendu;
#X obj 151 581 translateXYZ;
#X obj 174 356 / 20;
#X obj 174 314 random 80;
#X obj 174 335 - 40;
#X obj 151 630 cube;
#X obj 197 471 / 20;
#X obj 197 429 random 80;
#X obj 197 450 - 40;
#X text 319 270 <- clic;
#X obj 296 297 metro 500;
#X obj 296 274 tgl 15 0 empty empty empty 17 7 0 10 -260097 -1 -1 1
1;
#X obj 272 515 line;
#X msg 272 494 \$1 500;
#X obj 272 473 / 20;
#X obj 272 431 random 80;
#X obj 272 452 - 60;
#X obj 197 512 line;
#X msg 197 492 \$1 500;
#X obj 174 397 line;
#X msg 174 377 \$1 500;
#X connect 1 0 0 0;
#X connect 2 0 6 0;
#X connect 3 0 8 0;
#X connect 5 0 0 0;
#X connect 6 0 3 0;
#X connect 8 0 12 0;
#X connect 9 0 27 0;
#X connect 10 0 11 0;
#X connect 11 0 9 0;
#X connect 13 0 25 0;
#X connect 14 0 15 0;
#X connect 15 0 13 0;
#X connect 17 0 14 0;
#X connect 17 0 10 0;
#X connect 17 0 22 0;
#X connect 18 0 17 0;
#X connect 19 0 8 3;
#X connect 20 0 19 0;
#X connect 21 0 20 0;
#X connect 22 0 23 0;
#X connect 23 0 21 0;
#X connect 24 0 8 2;
#X connect 25 0 24 0;
#X connect 26 0 8 1;
#X connect 27 0 26 0;
