#N canvas 606 130 515 403 10;
#N canvas 0 22 195 228 noise 0;
#X obj 22 18 inlet;
#X obj 22 187 outlet;
#X obj 22 122 line;
#X obj 22 160 +;
#X obj 22 76 random 100;
#X obj 105 78 random 5;
#X obj 22 53 metro 10000;
#X msg 22 100 \$1 10000;
#X obj 105 53 metro 50;
#X connect 0 0 6 0;
#X connect 0 0 8 0;
#X connect 2 0 3 0;
#X connect 3 0 1 0;
#X connect 4 0 7 0;
#X connect 5 0 3 1;
#X connect 6 0 4 0;
#X connect 7 0 2 0;
#X connect 8 0 5 0;
#X restore 42 108 pd noise;
#X obj 42 83 tgl 15 0 empty empty empty 17 7 0 10 -262144 -1 -1 0 1
;
#N canvas 0 22 450 300 (subpatch) 0;
#X array noisy 100 float 2;
#X coords 0 100 99 0 200 140 1;
#X restore 280 29 graph;
#X floatatom 42 136 5 0 0 1 noisy - -;
#N canvas 0 22 450 300 (subpatch) 0;
#X array smoothed 100 float 2;
#X coords 0 100 99 0 200 140 1;
#X restore 279 189 graph;
#X floatatom 42 264 5 0 0 1 smoothed - -;
#X text 104 108 < noisy sensor simulation;
#X text 41 53 Time smoothing;
#X floatatom 99 167 5 0 0 1 smooth_strength_(ms) - -;
#X obj 42 214 line;
#X obj 42 190 pack 0 500;
#N canvas 0 22 261 172 synced_display 0;
#X obj 22 21 inlet;
#X obj 22 121 tabwrite smoothed;
#X obj 63 21 inlet;
#X obj 63 46 t f b;
#X obj 121 71 counter 0 99;
#X text 134 97 syncing displays;
#X obj 32 96 tabwrite noisy;
#X connect 0 0 1 0;
#X connect 2 0 3 0;
#X connect 3 0 6 0;
#X connect 3 1 4 0;
#X connect 4 0 6 1;
#X connect 4 0 1 1;
#X restore 56 238 pd synced_display;
#X text 23 351 leopold.frey@free.fr - 22/11/08;
#X text 24 367 http://creativecommons.org/licenses/by/2.0/;
#X connect 0 0 3 0;
#X connect 1 0 0 0;
#X connect 3 0 11 1;
#X connect 3 0 10 0;
#X connect 8 0 10 1;
#X connect 9 0 5 0;
#X connect 9 0 11 0;
#X connect 10 0 9 0;
