#N canvas 21 189 918 639 10;
#X obj 481 9 gemhead;
#X obj 481 -6 tgl 15 0 empty empty empty 0 -6 0 8 -262144 -1 -1 1 1
;
#X text 185 -113 faire correspondre les coordonnees de texture avec
la forme du quadrilatere;
#X obj 340 -38 gemwin;
#X msg 340 -88 dimen 800 300 \, FSAA 5 \, create \, 1;
#X msg 351 -66 0 \, destroy;
#X msg 430 -55 color 0.2 0.2 0.2;
#N canvas 198 171 529 670 Quad 0;
#X obj 70 555 GEMglEnd;
#X obj 185 36 GLdefine GL_SMOOTH;
#X obj 185 78 GLdefine GL_POLYGON;
#X obj 70 95 GEMglBegin;
#X obj 70 53 GEMglShadeModel;
#X obj 70 578 GEMglShadeModel;
#X obj 192 561 GLdefine GL_FLAT;
#X obj 70 29 inlet;
#X obj 192 539 r bbang;
#X obj 185 56 r bbang;
#X obj 185 14 r bbang;
#X obj 251 128 loadbang;
#X obj 251 150 bng 15 250 50 0 empty empty empty 17 7 0 10 -262144
-1 -1;
#X obj 251 172 s bbang;
#X obj 70 155 GEMglColor3f 1 1 1;
#X obj 70 298 GEMglVertex3f 2 -2 0;
#X obj 70 222 GEMglVertex3f -2 -2 0;
#X obj 70 379 GEMglVertex3f 2 2 0;
#X obj 70 470 GEMglVertex3fv -2 2 0;
#X obj 70 201 GEMglTexCoord2f 0 0;
#X obj 70 277 GEMglTexCoord2f 0.5 0;
#X obj 70 359 GEMglTexCoord2f 0.5 1;
#X obj 70 450 GEMglTexCoord2f 0 1;
#X floatatom 166 250 5 0 0 0 - - -;
#X floatatom 265 283 5 0 0 0 - - -;
#X connect 0 0 5 0;
#X connect 1 0 4 1;
#X connect 2 0 3 1;
#X connect 3 0 14 0;
#X connect 4 0 3 0;
#X connect 6 0 5 1;
#X connect 7 0 4 0;
#X connect 8 0 6 0;
#X connect 9 0 2 0;
#X connect 10 0 1 0;
#X connect 11 0 12 0;
#X connect 12 0 13 0;
#X connect 14 0 19 0;
#X connect 15 0 21 0;
#X connect 16 0 20 0;
#X connect 17 0 22 0;
#X connect 18 0 0 0;
#X connect 19 0 16 0;
#X connect 20 0 15 0;
#X connect 21 0 17 0;
#X connect 22 0 18 0;
#X connect 23 0 20 1;
#X connect 24 0 15 2;
#X restore 481 242 pd Quad;
#X text 183 -153 nom du gars donne par Florent : christian jacquemin
;
#X obj 132 5 gemhead;
#X obj 132 -24 tgl 15 0 empty empty empty 17 7 0 10 -262144 -1 -1 0
1;
#X obj 213 99 send texTure;
#X obj 132 74 gemframebuffer;
#X obj 213 117 cnv 5 76 5 empty empty empty 20 12 0 14 -261057 -66577
0;
#N canvas 49 351 450 300 props 0;
#X msg 193 -17 dimen 320 240;
#X msg 340 -9 color 0 0 1 0;
#X msg 329 -49 color 0 0 0 0;
#X msg 127 109 rectangle \$1;
#X obj 127 91 tgl 15 0 empty empty empty 0 -6 0 8 -262144 -1 -1 0 1
;
#X msg 87 -22 type FLOAT;
#X msg 109 64 texunit \$1;
#X msg 73 -61 type BYTE;
#X msg 81 -41 type INT;
#X msg 236 56 format YUV;
#X msg 227 35 format RGB;
#X msg 246 77 format RGBA;
#X msg 258 97 format RGB32;
#X floatatom 109 44 5 0 0 0 - - -;
#X obj 340 -30 loadbang;
#X obj 227 122 t a;
#X obj 163 1 t a;
#X obj 329 12 t a;
#X obj 73 7 t a;
#X obj 73 31 t a;
#X text 330 -94 default;
#X obj 56 175 outlet;
#X msg 163 -93 perspec -1 1 -1 1 1 200;
#X msg 180 -36 dimen 500 500;
#X connect 0 0 16 0;
#X connect 1 0 17 0;
#X connect 2 0 17 0;
#X connect 3 0 21 0;
#X connect 4 0 3 0;
#X connect 5 0 18 0;
#X connect 6 0 21 0;
#X connect 7 0 18 0;
#X connect 8 0 18 0;
#X connect 9 0 15 0;
#X connect 10 0 15 0;
#X connect 11 0 15 0;
#X connect 12 0 15 0;
#X connect 13 0 6 0;
#X connect 14 0 1 0;
#X connect 15 0 21 0;
#X connect 16 0 19 0;
#X connect 17 0 19 0;
#X connect 18 0 19 0;
#X connect 19 0 21 0;
#X connect 22 0 16 0;
#X connect 23 0 16 0;
#X restore 147 41 pd props;
#X obj 132 164 translateXYZ 0 0 -10;
#X floatatom 249 141 5 0 0 0 - - -;
#X obj 132 204 colorRGB 1 1 0 1;
#X obj 132 232 sphere 3 40;
#X obj 544 128 receive texTure;
#X obj 544 123 cnv 5 94 5 empty empty empty 20 12 0 14 -261057 -66577
0;
#X obj 481 154 pix_texture;
#X obj 542 53 loadbang;
#X msg 542 76 rectangle 0 \, repeat 1;
#X obj 711 9 gemhead;
#X obj 711 -6 tgl 15 0 empty empty empty 0 -6 0 8 -262144 -1 -1 1 1
;
#N canvas 200 177 529 670 Quad 0;
#X obj 70 555 GEMglEnd;
#X obj 185 36 GLdefine GL_SMOOTH;
#X obj 185 78 GLdefine GL_POLYGON;
#X obj 70 95 GEMglBegin;
#X obj 70 53 GEMglShadeModel;
#X obj 70 578 GEMglShadeModel;
#X obj 192 561 GLdefine GL_FLAT;
#X obj 70 29 inlet;
#X obj 192 539 r bbang;
#X obj 185 56 r bbang;
#X obj 185 14 r bbang;
#X obj 251 128 loadbang;
#X obj 251 150 bng 15 250 50 0 empty empty empty 17 7 0 10 -262144
-1 -1;
#X obj 251 172 s bbang;
#X obj 70 155 GEMglColor3f 1 1 1;
#X obj 70 298 GEMglVertex3f 2 -2 0;
#X obj 70 222 GEMglVertex3f -2 -2 0;
#X obj 70 379 GEMglVertex3f 2 2 0;
#X obj 70 470 GEMglVertex3fv -2 2 0;
#X obj 70 201 GEMglTexCoord2f 0 0;
#X obj 70 277 GEMglTexCoord2f 0.5 0;
#X obj 70 359 GEMglTexCoord2f 0.5 1;
#X obj 70 450 GEMglTexCoord2f 0 1;
#X floatatom 166 250 5 0 0 0 - - -;
#X floatatom 265 283 5 0 0 0 - - -;
#X connect 0 0 5 0;
#X connect 1 0 4 1;
#X connect 2 0 3 1;
#X connect 3 0 14 0;
#X connect 4 0 3 0;
#X connect 6 0 5 1;
#X connect 7 0 4 0;
#X connect 8 0 6 0;
#X connect 9 0 2 0;
#X connect 10 0 1 0;
#X connect 11 0 12 0;
#X connect 12 0 13 0;
#X connect 14 0 19 0;
#X connect 15 0 21 0;
#X connect 16 0 20 0;
#X connect 17 0 22 0;
#X connect 18 0 0 0;
#X connect 19 0 16 0;
#X connect 20 0 15 0;
#X connect 21 0 17 0;
#X connect 22 0 18 0;
#X connect 23 0 20 1;
#X connect 24 0 15 2;
#X restore 711 242 pd Quad;
#X obj 774 128 receive texTure;
#X obj 774 123 cnv 5 94 5 empty empty empty 20 12 0 14 -261057 -66577
0;
#X obj 711 154 pix_texture;
#X obj 772 53 loadbang;
#X msg 772 76 rectangle 0 \, repeat 1;
#X connect 0 0 21 0;
#X connect 1 0 0 0;
#X connect 4 0 3 0;
#X connect 5 0 3 0;
#X connect 6 0 3 0;
#X connect 9 0 12 0;
#X connect 10 0 9 0;
#X connect 12 0 15 0;
#X connect 12 1 11 0;
#X connect 14 0 12 0;
#X connect 15 0 17 0;
#X connect 16 0 15 3;
#X connect 17 0 18 0;
#X connect 19 0 21 1;
#X connect 21 0 7 0;
#X connect 22 0 23 0;
#X connect 23 0 21 0;
#X connect 24 0 29 0;
#X connect 25 0 24 0;
#X connect 27 0 29 1;
#X connect 29 0 26 0;
#X connect 30 0 31 0;
#X connect 31 0 29 0;
