#N canvas 477 122 572 579 10;
#X obj -27 50 gemhead;
#X obj -27 26 tgl 15 0 empty empty empty 17 7 0 10 -262144 -1 -1 1
1;
#X obj -27 297 pix_texture;
#X obj -27 419 rectangle 1200 1;
#X msg 54 356 \$1 \$1 0 \$1 0 0 \$1 0;
#X floatatom 75 288 3 0 256 0 - - -;
#X obj -27 380 pix_coordinate;
#X obj -180 259 loadbang;
#X msg -180 280 repeat 1 \, rectangle 0;
#X obj 46 22 inlet;
#X obj -25 142 translateXYZ 0 \$1 0;
#X obj 170 273 random 145;
#X obj 169 251 loadbang;
#X obj 171 296 / 3.2;
#X obj 294 363 r coords;
#X obj -26 186 pix_image 04.jpg;
#X obj 115 38 inlet;
#X obj 212 175 r resetCoords;
#X connect 0 0 10 0;
#X connect 1 0 0 0;
#X connect 2 0 6 0;
#X connect 4 0 6 1;
#X connect 5 0 4 0;
#X connect 6 0 3 0;
#X connect 7 0 8 0;
#X connect 8 0 2 0;
#X connect 9 0 10 1;
#X connect 10 0 15 0;
#X connect 11 0 13 0;
#X connect 12 0 11 0;
#X connect 13 0 4 0;
#X connect 14 0 6 1;
#X connect 15 0 2 0;
#X connect 16 0 0 0;
#X connect 17 0 11 0;
