#N canvas 456 74 1238 756 10;
#X obj -243 -21 gemwin;
#X msg -234 -47 0 \, destroy;
#X obj -84 299 pix_coordinate;
#N canvas 622 210 810 684 texture 0;
#X obj 410 368 pix_texture;
#X obj 566 304 tgl 15 0 empty empty empty 0 -6 0 8 -262144 -1 -1 0
1;
#X msg 566 323 rectangle \$1;
#X obj 541 254 tgl 15 0 empty empty empty 0 -6 0 8 -262144 -1 -1 0
1;
#X msg 541 273 repeat \$1;
#X msg 488 229 env \$1;
#X obj 489 209 hradio 15 1 0 6 empty empty empty 0 -6 0 8 -262144 -1
-1 0;
#X obj 410 142 inlet;
#X obj 410 448 outlet;
#X connect 0 0 8 0;
#X connect 1 0 2 0;
#X connect 2 0 0 0;
#X connect 3 0 4 0;
#X connect 4 0 0 0;
#X connect 5 0 0 0;
#X connect 6 0 5 0;
#X connect 7 0 0 0;
#X restore -84 165 pd texture;
#X floatatom -3 182 5 0 0 0 - - -;
#X obj -3 252 pack f f;
#X obj 42 228 + 1;
#X floatatom 57 149 5 0 0 0 - - -;
#X obj 33 165 b;
#X obj -3 211 t f f;
#X msg -3 273 \$1 \$1 \$2 \$1 \$2 \$2 \$1 \$2;
#X msg 63 292 0 0 1 0 1 1 0 1;
#X obj -234 126 loadbang;
#X msg -234 148 rectangle 0 \, repeat 1;
#X obj -84 137 pix_image 03.png;
#X msg -243 -71 color 0.5 0.5 0.5 \, dimen 600 200 \, create \, 1;
#X obj -84 1 gemhead;
#X obj -84 -23 tgl 15 0 empty empty empty 17 7 0 10 -262144 -1 -1 1
1;
#X obj -84 333 square 4;
#N canvas 1 72 617 519 openGL_exemple 0;
#X obj 194 331 GEMglEnd;
#X obj 331 -26 loadbang;
#X obj 195 14 GEMglBegin;
#X obj 347 314 loadbang;
#X obj 194 354 GEMglShadeModel;
#X obj 347 336 GLdefine GL_FLAT;
#X msg 503 -31 bang;
#X obj 209 56 GEMglTexCoord2i 0 0;
#X obj 194 -66 gemhead;
#X obj 44 -55 loadbang;
#X msg 44 -33 rectangle 0 \, repeat 1;
#X obj 194 -44 pix_image 03.png;
#X obj 195 -16 pix_texture;
#X obj 194 286 GEMglVertex3fv -12 4 0;
#X floatatom 368 151 5 0 0 0 - - -;
#X obj 331 -4 GLdefine GL_POLYGON;
#X obj 217 123 GEMglTexCoord2f 2 0;
#X obj 221 186 GEMglTexCoord2f 2 2;
#X obj 218 250 GEMglTexCoord2f 0 2;
#X obj 364 65 pack f f;
#X floatatom 341 29 5 0 0 0 - - -;
#X obj 197 82 GEMglVertex3f -12 -4 0;
#X obj 194 -90 tgl 15 0 empty empty empty 17 7 0 10 -262144 -1 -1 0
1;
#X obj 194 214 GEMglVertex3f -4 4 0;
#X obj 196 157 GEMglVertex3f -4 -4 0;
#X obj 194 -136 loadbang;
#X msg 194 -114 0;
#X connect 0 0 4 0;
#X connect 1 0 15 0;
#X connect 2 0 7 0;
#X connect 3 0 5 0;
#X connect 5 0 4 1;
#X connect 6 0 5 0;
#X connect 6 0 15 0;
#X connect 7 0 21 0;
#X connect 8 0 11 0;
#X connect 9 0 10 0;
#X connect 10 0 12 0;
#X connect 11 0 12 0;
#X connect 12 0 2 0;
#X connect 13 0 0 0;
#X connect 14 0 16 1;
#X connect 14 0 17 1;
#X connect 14 0 17 2;
#X connect 14 0 18 2;
#X connect 14 0 19 1;
#X connect 15 0 2 1;
#X connect 16 0 24 0;
#X connect 17 0 23 0;
#X connect 18 0 13 0;
#X connect 20 0 21 2;
#X connect 21 0 16 0;
#X connect 22 0 8 0;
#X connect 23 0 18 0;
#X connect 24 0 17 0;
#X connect 25 0 26 0;
#X connect 26 0 22 0;
#X restore -243 -104 pd openGL_exemple;
#X obj -84 97 translateXYZ -8 0 0;
#X obj 230 332 GEMglEnd;
#X obj 230 179 GEMglBegin;
#X obj 383 315 loadbang;
#X obj 230 355 GEMglShadeModel;
#X obj 383 337 GLdefine GL_FLAT;
#X obj 230 101 gemhead;
#X obj 230 77 tgl 15 0 empty empty empty 17 7 0 10 -262144 -1 -1 1
1;
#X obj 230 31 loadbang;
#X msg 230 53 0;
#X obj 230 149 translateXYZ -8 0 0;
#X obj 230 205 GEMglVertex3f -4 -4 0;
#X obj 230 232 GEMglVertex3f 4 -4 0;
#X obj 230 287 GEMglVertex3fv -4 4 0;
#X obj 60 121 separator;
#X obj 230 260 GEMglVertex3f 3 4 0;
#X obj -26 32 GEMglClearStencil 1;
#X obj 534 83 GEMglEnable;
#X floatatom 620 85 5 0 0 0 - - -;
#X obj 606 35 bng 15 250 50 0 empty empty empty 0 -6 0 8 -262144 -1
-1;
#X obj 606 58 GLdefine GL_STENCIL_TEST;
#X obj 624 33 loadbang;
#X obj 599 135 GLdefine GL_STENCIL_BUFFER_BIT;
#X obj 661 114 bng 15 250 50 0 empty empty empty 0 -6 0 8 -262144 -1
-1;
#X floatatom 614 160 5 0 0 0 - - -;
#X obj 599 112 loadbang;
#X obj 534 2 GEMglClearStencil 0;
#X obj 534 160 GEMglClear;
#X obj 534 -25 gemhead 45;
#X obj 534 259 GEMglStencilFunc;
#X msg 641 233 1;
#X obj 570 189 bng 15 250 50 0 empty empty empty 0 -6 0 8 -262144 -1
-1;
#X obj 569 212 GLdefine GL_ALWAYS;
#X obj 591 189 loadbang;
#X floatatom 595 233 5 0 0 0 - - -;
#X obj 534 339 GEMglStencilOp;
#X floatatom 651 334 5 0 0 0 - - -;
#X obj 565 239 bng 15 250 50 0 empty empty empty 0 -6 0 8 -262144 -1
-1;
#X obj 565 305 GLdefine GL_REPLACE;
#X obj 590 283 loadbang;
#X obj 734 496 bng 15 250 50 0 empty empty empty 0 -6 0 8 -262144 -1
-1;
#X obj 665 495 loadbang;
#X obj 534 563 GEMglClear;
#X floatatom 592 589 5 0 0 0 - - -;
#X obj 621 496 t b b;
#X obj 540 755 GEMglStencilFunc;
#X msg 647 731 1;
#X obj 575 688 bng 15 250 50 0 empty empty empty 0 -6 0 8 -262144 -1
-1;
#X obj 596 686 loadbang;
#X floatatom 585 732 5 0 0 0 - - -;
#X obj 575 709 GLdefine GL_NOTEQUAL;
#X obj 540 864 color 1 0 0;
#X obj 621 519 GLdefine GL_COLOR_BUFFER_BIT;
#X obj 540 833 GEMglStencilOp;
#X floatatom 651 832 5 0 0 0 - - -;
#X obj 571 778 bng 15 250 50 0 empty empty empty 0 -6 0 8 -262144 -1
-1;
#X obj 594 775 loadbang;
#X obj 571 799 GLdefine GL_KEEP;
#X obj 621 563 |;
#X obj 534 448 circle 1.5;
#X text 626 438 draw in all buffer;
#X text 599 593 clear color and depth buffer;
#X text 538 657 draw where the stencil buffer is not 1;
#X obj 540 891 square 3;
#X text 733 611 (c) Cyrille Henry 2006;
#X obj 599 426 teapot 1.5;
#X obj 534 410 spigot;
#X obj 599 407 spigot;
#X obj 574 363 loadbang;
#X obj 642 385 tgl 15 0 empty empty empty 0 -6 0 8 -262144 -1 -1 0
1;
#X obj 577 387 == 0;
#X msg 642 364 0;
#X obj 531 -52 tgl 15 0 empty empty empty 0 -6 0 8 -262144 -1 -1 0
1;
#X obj 640 541 GLdefine GL_COLOR_BUFFER_BIT;
#X floatatom 646 955 5 0 0 0 - - -;
#X obj 628 907 bng 15 250 50 0 empty empty empty 0 -6 0 8 -262144 -1
-1;
#X obj 628 930 GLdefine GL_STENCIL_TEST;
#X obj 646 905 loadbang;
#X obj 549 955 GEMglDisable;
#X obj 218 867 GEMglStencilFunc;
#X msg 325 843 1;
#X obj 253 800 bng 15 250 50 0 empty empty empty 0 -6 0 8 -262144 -1
-1;
#X obj 274 798 loadbang;
#X floatatom 263 844 5 0 0 0 - - -;
#X obj 253 821 GLdefine GL_NOTEQUAL;
#X obj 218 945 GEMglStencilOp;
#X floatatom 329 944 5 0 0 0 - - -;
#X obj 249 890 bng 15 250 50 0 empty empty empty 0 -6 0 8 -262144 -1
-1;
#X obj 272 887 loadbang;
#X obj 249 911 GLdefine GL_KEEP;
#X text 216 769 draw where the stencil buffer is not 1;
#X obj 111 586 GEMglEnable;
#X floatatom 197 588 5 0 0 0 - - -;
#X obj 183 538 bng 15 250 50 0 empty empty empty 0 -6 0 8 -262144 -1
-1;
#X obj 183 561 GLdefine GL_STENCIL_TEST;
#X obj 201 536 loadbang;
#X obj 176 638 GLdefine GL_STENCIL_BUFFER_BIT;
#X obj 238 617 bng 15 250 50 0 empty empty empty 0 -6 0 8 -262144 -1
-1;
#X floatatom 191 663 5 0 0 0 - - -;
#X obj 176 615 loadbang;
#X obj 111 505 GEMglClearStencil 0;
#X obj 111 663 GEMglClear;
#X text 139 468 allow \, clear and configure stencil buffer;
#X obj 103 428 gemhead;
#X floatatom 410 82 5 0 0 0 - - -;
#X obj 392 34 bng 15 250 50 0 empty empty empty 0 -6 0 8 -262144 -1
-1;
#X obj 392 57 GLdefine GL_STENCIL_TEST;
#X obj 410 32 loadbang;
#X obj 313 82 GEMglDisable;
#X connect 1 0 0 0;
#X connect 2 0 18 0;
#X connect 3 0 2 0;
#X connect 4 0 9 0;
#X connect 5 0 10 0;
#X connect 6 0 5 1;
#X connect 7 0 6 1;
#X connect 7 0 8 0;
#X connect 8 0 4 0;
#X connect 9 0 5 0;
#X connect 9 1 6 0;
#X connect 10 0 2 1;
#X connect 11 0 2 1;
#X connect 12 0 13 0;
#X connect 13 0 3 0;
#X connect 14 0 3 0;
#X connect 15 0 0 0;
#X connect 16 0 20 0;
#X connect 17 0 16 0;
#X connect 20 0 14 0;
#X connect 20 0 34 0;
#X connect 21 0 24 0;
#X connect 22 0 31 0;
#X connect 23 0 25 0;
#X connect 25 0 24 1;
#X connect 26 0 128 0;
#X connect 27 0 26 0;
#X connect 28 0 29 0;
#X connect 29 0 27 0;
#X connect 30 0 22 0;
#X connect 31 0 32 0;
#X connect 32 0 35 0;
#X connect 33 0 21 0;
#X connect 35 0 33 0;
#X connect 37 0 47 0;
#X connect 39 0 40 0;
#X connect 40 0 38 0;
#X connect 40 0 37 1;
#X connect 41 0 40 0;
#X connect 42 0 44 0;
#X connect 42 0 47 1;
#X connect 43 0 42 0;
#X connect 45 0 42 0;
#X connect 46 0 37 0;
#X connect 47 0 49 0;
#X connect 48 0 46 0;
#X connect 49 0 55 0;
#X connect 50 0 49 3;
#X connect 50 0 49 2;
#X connect 51 0 52 0;
#X connect 51 0 50 0;
#X connect 52 0 49 1;
#X connect 52 0 54 0;
#X connect 53 0 50 0;
#X connect 53 0 52 0;
#X connect 55 0 86 0;
#X connect 55 0 87 0;
#X connect 57 0 58 0;
#X connect 58 0 56 0;
#X connect 58 0 55 1;
#X connect 58 0 55 2;
#X connect 58 0 55 3;
#X connect 59 0 57 0;
#X connect 60 0 64 0;
#X connect 61 0 64 0;
#X connect 62 0 65 0;
#X connect 64 0 72 0;
#X connect 64 1 93 0;
#X connect 65 0 73 0;
#X connect 66 0 65 3;
#X connect 66 0 65 2;
#X connect 67 0 70 0;
#X connect 68 0 66 0;
#X connect 68 0 70 0;
#X connect 70 0 65 1;
#X connect 70 0 69 0;
#X connect 71 0 83 0;
#X connect 72 0 78 0;
#X connect 73 0 71 0;
#X connect 75 0 77 0;
#X connect 76 0 75 0;
#X connect 77 0 74 0;
#X connect 77 0 73 1;
#X connect 77 0 73 2;
#X connect 77 0 73 3;
#X connect 78 0 63 0;
#X connect 78 0 62 1;
#X connect 79 0 62 0;
#X connect 83 0 99 0;
#X connect 85 0 62 0;
#X connect 86 0 79 0;
#X connect 87 0 85 0;
#X connect 88 0 91 0;
#X connect 89 0 87 1;
#X connect 89 0 90 0;
#X connect 90 0 86 1;
#X connect 91 0 89 0;
#X connect 92 0 48 0;
#X connect 93 0 78 1;
#X connect 95 0 96 0;
#X connect 96 0 94 0;
#X connect 96 0 98 1;
#X connect 97 0 96 0;
#X connect 99 0 105 0;
#X connect 100 0 99 3;
#X connect 100 0 99 2;
#X connect 101 0 104 0;
#X connect 102 0 100 0;
#X connect 102 0 104 0;
#X connect 104 0 99 1;
#X connect 104 0 103 0;
#X connect 105 0 98 0;
#X connect 107 0 109 0;
#X connect 108 0 107 0;
#X connect 109 0 106 0;
#X connect 109 0 105 1;
#X connect 109 0 105 2;
#X connect 109 0 105 3;
#X connect 111 0 121 0;
#X connect 113 0 114 0;
#X connect 114 0 112 0;
#X connect 114 0 111 1;
#X connect 115 0 114 0;
#X connect 116 0 118 0;
#X connect 116 0 121 1;
#X connect 117 0 116 0;
#X connect 119 0 116 0;
#X connect 120 0 111 0;
#X connect 123 0 120 0;
#X connect 125 0 126 0;
#X connect 126 0 124 0;
#X connect 126 0 128 1;
#X connect 127 0 126 0;
#X connect 128 0 30 0;
