#N canvas 449 85 841 702 10;
#X obj -210 -69 gemwin;
#X msg -203 -93 0 \, destroy;
#X obj 99 458 bande -3;
#X obj 66 117 gemhead;
#X obj 183 126 gemhead;
#N canvas 220 325 1012 452 properties 0;
#X text 29 17 properties for pix_openni;
#X obj 54 54 cnv 15 300 150 empty empty empty 20 12 0 14 -232576 -66577
0;
#X msg 70 122 rgb \$1;
#X obj 70 88 vradio 15 1 0 2 empty empty empty 0 -8 0 10 -262144 -1
-1 0;
#X obj 127 88 vradio 15 1 0 2 empty empty empty 0 -8 0 10 -262144 -1
-1 0;
#X msg 127 122 depth \$1;
#X obj 195 88 vradio 15 1 0 2 empty empty empty 0 -8 0 10 -262144 -1
-1 0;
#X obj 271 148 vradio 15 1 0 2 empty empty empty 0 -8 0 10 -262144
-1 -1 0;
#X msg 271 182 hand \$1;
#X text 92 86 OFF;
#X text 92 102 ON;
#X obj 69 162 s \$0-prop;
#X text 64 59 TURN ON/OFF STREAMS;
#X obj 378 55 cnv 15 300 150 empty empty empty 20 12 0 14 -260097 -66577
0;
#X msg 415 130 depth_mode 640 480 30;
#X msg 389 83 video_mode 640 480 30;
#X msg 399 102 video_mode 1280 1024 15;
#X text 391 59 change video/depth mode of OpenNI;
#X msg 512 151 bang;
#X text 550 151 view available modes;
#X obj 394 170 s \$0-prop;
#X obj 5 222 cnv 15 350 150 empty empty empty 20 12 0 14 -204800 -66577
0;
#X msg 12 315 depth_output \$1;
#X obj 12 250 vradio 15 1 0 4 empty empty empty 0 -8 0 10 -262144 -1
-1 0;
#X msg 239 291 registration \$1;
#X obj 239 257 vradio 15 1 0 2 empty empty empty 0 -8 0 10 -262144
-1 -1 0;
#X obj 12 349 s \$0-prop;
#X text 8 223 DEPTH OUTPUT PROPERTIES;
#X obj 379 223 cnv 15 300 150 empty empty empty 20 12 0 14 -162280
-66577 0;
#X obj 392 317 vradio 15 1 0 2 empty empty empty 0 -8 0 10 -262144
-1 -1 0;
#X text 414 315 OFF;
#X text 414 331 ON;
#X obj 391 255 vradio 15 1 0 2 empty empty empty 0 -8 0 10 -262144
-1 -1 0;
#X text 410 253 OFF;
#X text 410 269 ON;
#X msg 391 289 real_world_coords \$1;
#X msg 392 351 osc_style_output \$1;
#X text 441 266 z: 0-7;
#X text 440 253 if OFF x and y are normalized 0-1;
#X text 388 225 tracking data properties (skeleton \, hand);
#X obj 384 379 s \$0-prop;
#X text 241 222 Match viewpoints;
#X text 241 237 of RGB and Depth;
#X text 257 254 OFF;
#X text 257 270 ON;
#X text 29 247 normal -> human viewable;
#X obj 692 55 cnv 15 300 350 empty empty empty 20 12 0 14 -128992 -66577
0;
#X obj 697 274 s \$0-prop;
#X floatatom 817 78 5 0 0 0 - - -;
#X text 698 55 skeleton specific;
#X msg 705 189 userinfo;
#X text 765 177 userinfo to outlet;
#X text 778 191 num_users [#];
#X msg 697 93 stop_user;
#X msg 817 97 stop_user \$1;
#X floatatom 818 119 5 0 0 0 - - -;
#X msg 702 152 start_user;
#X msg 818 138 start_user \$1;
#X text 699 120 start calibration;
#X obj 788 239 vradio 15 1 0 2 empty empty empty 0 -8 0 10 -262144
-1 -1 0;
#X text 807 237 OFF;
#X text 807 253 ON;
#X text 780 221 start calibration if user detected;
#X msg 788 273 auto_calibration \$1;
#X text 699 133 for all users;
#X text 855 64 stop skeleton for;
#X text 859 80 specific user;
#X text 694 74 stop all skeletons;
#X text 855 117 start calibration for;
#X text 919 132 spec. user;
#X text 834 252 default: ON;
#X obj 270 88 vradio 15 1 0 2 empty empty empty 0 -8 0 10 -262144 -1
-1 0;
#X msg 270 122 skeleton \$1;
#X msg 195 122 usergen \$1;
#X text 778 203 user [id] [is_tracking] x y z (com);
#X obj 239 315 vradio 15 1 0 2 empty empty empty 0 -8 0 10 -262144
-1 -1 0;
#X text 257 313 OFF;
#X text 257 329 ON;
#X msg 239 349 usercoloring \$1;
#X text 275 328 needs usergen;
#X text 29 295 raw yuv (2 byte)->16 bit mm;
#X text 30 263 greyscale (8 bit);
#X text 29 279 raw rgba -> mm in r&g \, userid b ch.;
#X text 441 314 -> joint r_hand id x y z convidence;
#X text 436 330 -> /skeleton/joint/r_hand id x y z conv.;
#X obj 790 301 vradio 15 1 0 2 empty empty empty 0 -8 0 10 -262144
-1 -1 0;
#X text 808 298 OFF;
#X text 808 314 ON;
#X msg 790 335 euler_output \$1;
#X text 833 298 output orientation;
#X text 832 311 euler angles per joint;
#X msg 791 381 skeleton_smoothing \$1;
#X floatatom 791 360 5 0 0 0 - - -;
#X text 828 359 0 - 1 default: 0.5;
#X connect 2 0 11 0;
#X connect 3 0 2 0;
#X connect 4 0 5 0;
#X connect 5 0 11 0;
#X connect 6 0 73 0;
#X connect 7 0 8 0;
#X connect 8 0 11 0;
#X connect 14 0 20 0;
#X connect 15 0 20 0;
#X connect 16 0 20 0;
#X connect 18 0 20 0;
#X connect 22 0 26 0;
#X connect 23 0 22 0;
#X connect 24 0 26 0;
#X connect 25 0 24 0;
#X connect 29 0 36 0;
#X connect 32 0 35 0;
#X connect 35 0 40 0;
#X connect 36 0 40 0;
#X connect 48 0 54 0;
#X connect 50 0 47 0;
#X connect 53 0 47 0;
#X connect 54 0 47 0;
#X connect 55 0 57 0;
#X connect 56 0 47 0;
#X connect 57 0 47 0;
#X connect 59 0 63 0;
#X connect 63 0 47 0;
#X connect 71 0 72 0;
#X connect 72 0 11 0;
#X connect 73 0 11 0;
#X connect 75 0 78 0;
#X connect 78 0 26 0;
#X connect 85 0 88 0;
#X connect 88 0 47 0;
#X connect 91 0 47 0;
#X connect 92 0 91 0;
#X restore -79 -62 pd properties;
#X obj 0 135 r \$0-prop;
#N canvas 512 332 531 259 tracking_data 0;
#X obj 32 83 gem_sceleton;
#N canvas 824 427 675 356 status_msg 0;
#X obj 16 26 inlet;
#X obj 79 217 text3d;
#X obj 79 125 list trim;
#X obj 174 166 loadbang;
#X obj 215 55 gemhead 20;
#X obj 215 80 alpha 1;
#X obj 215 128 color 1 1 1 0;
#X obj 353 69 line;
#X msg 353 105 1 1 1 \$1;
#X msg 353 43 0 1000;
#X obj 79 81 t a b b;
#X obj 79 102 list prepend text;
#X obj 353 7 delay 1500;
#X msg 112 187 6;
#X msg 174 190 justify left base;
#X obj 215 106 translateXYZ -5 -3.5 0;
#X msg 282 7 1 200;
#X text 87 236 post new_user ....;
#X obj 359 231 color 0 0 0 0;
#X obj 359 157 gemhead 19;
#X obj 359 203 translateXYZ -5 -3.5 0;
#X obj 359 282 rectangle 2.6 0.3;
#X obj 359 259 translateXYZ 2.4 0.12 0;
#X obj 359 179 alpha 1;
#X msg 426 109 0 0 0 \$1;
#X obj 16 54 route joint hand playback user;
#X obj 226 9 tgl 15 0 empty empty empty 17 7 0 10 -262144 -1 -1 0 1
;
#X obj 363 129 tgl 15 0 empty empty empty 17 7 0 10 -262144 -1 -1 0
1;
#X connect 0 0 25 0;
#X connect 2 0 1 0;
#X connect 3 0 13 0;
#X connect 3 0 14 0;
#X connect 4 0 5 0;
#X connect 5 0 15 0;
#X connect 6 0 1 0;
#X connect 7 0 8 0;
#X connect 7 0 24 0;
#X connect 8 0 6 1;
#X connect 9 0 7 0;
#X connect 10 0 11 0;
#X connect 10 1 16 0;
#X connect 10 2 12 0;
#X connect 11 0 2 0;
#X connect 12 0 9 0;
#X connect 13 0 1 1;
#X connect 14 0 1 0;
#X connect 15 0 6 0;
#X connect 16 0 7 0;
#X connect 18 0 22 0;
#X connect 19 0 23 0;
#X connect 20 0 18 0;
#X connect 22 0 21 0;
#X connect 23 0 20 0;
#X connect 24 0 18 1;
#X connect 25 4 10 0;
#X connect 26 0 4 0;
#X connect 27 0 19 0;
#X restore 122 84 pd status_msg;
#N canvas 730 152 545 513 hand 0;
#X obj 20 32 inlet;
#X text 74 32 display hand tracking;
#X obj 20 63 route hand;
#X obj 20 96 unpack f f f f;
#X floatatom 57 140 5 0 0 0 - - -;
#X floatatom 95 138 5 0 0 0 - - -;
#X floatatom 132 139 5 0 0 0 - - -;
#X floatatom 20 140 5 0 0 0 - - -;
#X obj 86 188 gemhead;
#X obj 86 280 translateXYZ;
#X obj 86 379 sphere 0.1;
#X obj 172 351 separator;
#X obj 86 323 t a a;
#X obj 86 351 separator;
#X obj 171 455 text3d;
#X obj 267 393 loadbang;
#X msg 204 414 4;
#X obj 86 301 color 0 0.1 1;
#X msg -9 303 text hand \$1;
#X msg 267 417 justify center base;
#X obj 171 373 translateXYZ 0 -0.35 0.01;
#X obj 94 225 * 4;
#X obj 94 247 - 2;
#X obj 174 225 * -4;
#X obj 174 247 + 3;
#X obj 134 225 * -4;
#X obj 134 247 + 2;
#X msg 33 448 text hand;
#X obj 33 415 loadbang;
#X obj 286 151 tgl 15 0 empty empty empty 17 7 0 10 -262144 -1 -1 0
1;
#X obj 321 204 loadbang;
#X msg 347 255 0;
#X connect 0 0 2 0;
#X connect 2 0 3 0;
#X connect 3 0 7 0;
#X connect 3 0 18 0;
#X connect 3 1 4 0;
#X connect 3 1 21 0;
#X connect 3 2 5 0;
#X connect 3 2 25 0;
#X connect 3 3 6 0;
#X connect 3 3 23 0;
#X connect 8 0 9 0;
#X connect 9 0 17 0;
#X connect 11 0 20 0;
#X connect 12 0 13 0;
#X connect 12 1 11 0;
#X connect 13 0 10 0;
#X connect 15 0 16 0;
#X connect 15 0 19 0;
#X connect 16 0 14 1;
#X connect 17 0 12 0;
#X connect 18 0 14 0;
#X connect 19 0 14 0;
#X connect 20 0 14 0;
#X connect 21 0 22 0;
#X connect 22 0 9 1;
#X connect 23 0 24 0;
#X connect 24 0 9 3;
#X connect 25 0 26 0;
#X connect 26 0 9 2;
#X connect 27 0 14 0;
#X connect 28 0 27 0;
#X connect 29 0 8 0;
#X connect 30 0 31 0;
#X connect 31 0 29 0;
#X restore 213 85 pd hand;
#X obj 32 18 inlet;
#X obj 318 79 route playback;
#X floatatom 292 145 5 0 0 0 - - -;
#X floatatom 329 144 5 0 0 0 - - -;
#X text 295 162 rgb;
#X text 316 59 playback frame;
#X obj 318 107 unpack 0 0 0 0;
#X floatatom 407 143 5 0 0 0 - - -;
#X floatatom 445 143 5 0 0 0 - - -;
#X text 445 161 total;
#X text 329 162 total;
#X text 407 162 depth;
#X text 296 175 cur;
#X text 411 175 cur;
#N canvas 267 350 585 405 user_center_of_mass 0;
#X obj 35 42 inlet;
#X obj 35 70 route user;
#X obj 35 99 unpack f f f f f;
#X text 129 43 info about detected users;
#X text 122 69 user [id] [skeleton_is_tracking] [x] [y] [z];
#X obj 204 292 translateXYZ;
#X text 386 227 arg1: joint name;
#X obj 227 206 * 1;
#X obj 259 205 * 1;
#X obj 291 205 * 1;
#X obj 227 247 - 0;
#X obj 259 246 - 0;
#X obj 291 244 - 0;
#X obj 259 265 * -1;
#X obj 27 215 separator;
#X obj 204 317 color 1 1 1;
#X obj 371 199 r sceleton/z_offset;
#X obj 370 171 r sceleton/offset;
#X obj 371 140 r sceleton/z_scale;
#X obj 368 119 r sceleton/scale;
#X obj 27 194 r sceleton/gemhead;
#X obj 204 367 text3d;
#X obj 356 329 loadbang;
#X msg 295 350 4;
#X msg 356 353 justify center base;
#X obj 81 338 list trim;
#X obj 81 315 list prepend text;
#X obj 468 319 s \$0-prop;
#X msg 468 290 userinfo;
#X obj 468 269 metro 200;
#X obj 468 247 tgl 15 0 empty empty empty 17 7 0 10 -262144 -1 -1 0
1;
#X text 322 86 coordinates are center of mass of user;
#X connect 0 0 1 0;
#X connect 1 0 2 0;
#X connect 2 0 26 0;
#X connect 2 2 7 0;
#X connect 2 3 8 0;
#X connect 2 4 9 0;
#X connect 5 0 15 0;
#X connect 7 0 10 0;
#X connect 8 0 11 0;
#X connect 9 0 12 0;
#X connect 10 0 5 1;
#X connect 11 0 13 0;
#X connect 12 0 5 3;
#X connect 13 0 5 2;
#X connect 14 0 5 0;
#X connect 15 0 21 0;
#X connect 16 0 12 1;
#X connect 17 0 10 1;
#X connect 17 0 11 1;
#X connect 18 0 9 1;
#X connect 19 0 7 1;
#X connect 19 0 8 1;
#X connect 20 0 14 0;
#X connect 22 0 23 0;
#X connect 22 0 24 0;
#X connect 23 0 21 1;
#X connect 24 0 21 0;
#X connect 25 0 21 0;
#X connect 26 0 25 0;
#X connect 28 0 27 0;
#X connect 29 0 28 0;
#X connect 30 0 29 0;
#X restore 12 125 pd user_center_of_mass;
#X connect 3 0 0 0;
#X connect 3 0 1 0;
#X connect 3 0 2 0;
#X connect 3 0 4 0;
#X connect 3 0 17 0;
#X connect 4 0 9 0;
#X connect 9 0 5 0;
#X connect 9 1 6 0;
#X connect 9 2 10 0;
#X connect 9 3 11 0;
#X restore 248 169 pd tracking_data;
#X text 255 153 tracking and info output;
#X obj 66 152 pix_openni 0 1 1 1 0;
#X obj 183 84 tgl 15 0 empty empty empty 17 7 0 10 -262144 -1 -1 0
1;
#X obj 66 96 tgl 15 0 empty empty empty 17 7 0 10 -262144 -1 -1 0 1
;
#X obj 183 203 route joint;
#X obj 275 262 route r_ankle;
#X obj 90 262 route r_foot;
#X obj 183 262 route r_hand;
#X obj 380 282 unpack f f f f f;
#X floatatom 403 344 5 0 0 0 - - -;
#X floatatom 426 326 5 0 0 0 - - -;
#X floatatom 449 305 5 0 0 0 - - -;
#X obj 183 292 unpack f f f f f;
#X floatatom 11 309 5 0 0 0 - - -;
#X floatatom 229 336 5 0 0 0 - - -;
#X floatatom 252 315 5 0 0 0 - - -;
#X obj 207 -15 s coords;
#X msg -209 -115 color 0.5 0.5 0.5 \, dimen 3072 768 \, create \, 1
;
#X obj -188 262 gemhead;
#X obj -188 325 colorRGB 0 0 0 1;
#X obj -188 286 GEMglLoadIdentity;
#X floatatom -143 363 5 0 0 0 - - -;
#X floatatom -98 363 5 0 0 0 - - -;
#X floatatom -53 363 5 0 0 0 - - -;
#X floatatom -95 418 5 0 0 0 - - -;
#X floatatom -142 418 5 0 0 0 - - -;
#X obj -188 -8 gemhead;
#X obj -188 55 colorRGB 0 0 0 1;
#X obj -188 16 GEMglLoadIdentity;
#X floatatom -149 82 5 0 0 0 - - -;
#X floatatom -110 82 5 0 0 0 - - -;
#X floatatom -71 82 5 0 0 0 - - -;
#X floatatom -113 130 5 0 0 0 - - -;
#X floatatom -151 129 5 0 0 0 - - -;
#X obj 390 -93 gemhead;
#X obj 390 -15 pix_texture;
#X obj 144 438 tgl 15 0 empty empty empty 17 7 0 10 -262144 -1 -1 1
1;
#X obj 314 421 tgl 15 0 empty empty empty 17 7 0 10 -262144 -1 -1 1
1;
#X obj 428 420 tgl 15 0 empty empty empty 17 7 0 10 -262144 -1 -1 1
1;
#X obj 526 422 tgl 15 0 empty empty empty 17 7 0 10 -262144 -1 -1 1
1;
#X obj 390 -38 pix_image 09.jpg;
#X obj 390 15 rectangle 15 4;
#X obj 390 -66 translateXYZ -0.23 0 0;
#X obj -188 160 rectangle 0.5 4;
#X obj -188 103 translateXYZ 2.2 0 -2;
#X obj -188 383 translateXYZ -1.92 0 -2;
#X obj -188 440 rectangle 0.53 4;
#X obj -130 211 tgl 15 0 empty empty empty 17 7 0 10 -262144 -1 -1
0 1;
#X obj 364 -96 tgl 15 0 empty empty empty 17 7 0 10 -262144 -1 -1 0
1;
#X obj 208 -63 s resetCoords;
#X obj 208 -85 bng 15 250 50 0 empty empty empty 17 7 0 10 -262144
-1 -1;
#X floatatom 115 -58 5 0 0 0 - - -;
#X obj 270 448 bande -1;
#X obj 395 448 bande 1;
#X obj 484 448 bande 3;
#X obj 256 50 pack f f;
#X floatatom 249 31 5 0 0 0 - - -;
#X floatatom 301 23 5 0 0 0 - - -;
#X msg 207 -37 0 0 12 0 12 1 0 1;
#X msg 67 -32 0 0 \$1 0 \$1 1 0 1;
#X obj 380 260 route l_hand;
#X obj 99 437 * 8;
#X obj 273 374 * 8;
#X obj 396 381 * 8;
#X obj 484 346 * 8;
#X obj 99 410 expr ( $f1 + $f2 ) / 2;
#X obj 144 361 f;
#X obj 117 335 t f b;
#X obj 99 386 pack f f;
#X obj 175 323 t f f;
#X text 153 532 TODO : LISSER LE SIGNAL !!;
#X connect 1 0 0 0;
#X connect 3 0 9 0;
#X connect 4 0 9 1;
#X connect 6 0 9 0;
#X connect 9 2 7 0;
#X connect 9 2 12 0;
#X connect 10 0 4 0;
#X connect 11 0 3 0;
#X connect 12 0 14 0;
#X connect 12 0 13 0;
#X connect 12 0 15 0;
#X connect 12 0 68 0;
#X connect 15 0 20 0;
#X connect 16 1 17 0;
#X connect 16 2 18 0;
#X connect 16 3 19 0;
#X connect 17 0 71 0;
#X connect 18 0 72 0;
#X connect 20 1 21 0;
#X connect 20 1 77 0;
#X connect 20 2 22 0;
#X connect 20 3 23 0;
#X connect 22 0 70 0;
#X connect 25 0 0 0;
#X connect 26 0 28 0;
#X connect 27 0 53 0;
#X connect 28 0 27 0;
#X connect 29 0 53 1;
#X connect 30 0 53 2;
#X connect 31 0 53 3;
#X connect 32 0 54 2;
#X connect 33 0 54 1;
#X connect 34 0 36 0;
#X connect 35 0 52 0;
#X connect 36 0 35 0;
#X connect 37 0 52 1;
#X connect 38 0 52 2;
#X connect 39 0 52 3;
#X connect 40 0 51 2;
#X connect 41 0 51 1;
#X connect 42 0 50 0;
#X connect 43 0 49 0;
#X connect 44 0 2 1;
#X connect 45 0 60 1;
#X connect 46 0 61 1;
#X connect 47 0 62 1;
#X connect 48 0 43 0;
#X connect 50 0 48 0;
#X connect 52 0 51 0;
#X connect 53 0 54 0;
#X connect 56 0 42 0;
#X connect 58 0 57 0;
#X connect 59 0 67 0;
#X connect 64 0 63 0;
#X connect 65 0 63 1;
#X connect 66 0 24 0;
#X connect 67 0 24 0;
#X connect 68 0 16 0;
#X connect 69 0 2 0;
#X connect 70 0 60 0;
#X connect 71 0 61 0;
#X connect 72 0 62 0;
#X connect 73 0 69 0;
#X connect 74 0 76 1;
#X connect 75 0 76 0;
#X connect 75 1 74 0;
#X connect 76 0 73 0;
#X connect 77 0 74 1;
#X connect 77 1 75 0;
