#N canvas 286 61 1146 813 10;
#X obj -421 -481 bng 15 250 50 0 empty empty empty 17 7 0 10 -262144
-1 -1;
#X obj -339 -307 f;
#X obj -301 -310 + 1;
#X obj -339 -328 b;
#X obj -438 -233 tabwrite points3d;
#X obj -421 -459 t b b b;
#X obj -421 -364 t b f;
#N canvas 0 0 450 300 (subpatch) 0;
#X array points3d 300 float 3;
#A 0 -2 0 -2 -2 -2 0 0 0 0 0 0 0 0 0 0 0 0 0 0 0 0 0 0 0 0 0 0 0 0
0 0 0 0 0 0 0 0 0 0 0 0 0 0 0 0 0 0 0 0 0 0 0 0 0 0 0 0 0 0 0 0 0 0
0 0 0 0 0 0 0 0 0 0 0 0 0 0 0 0 0 0 0 0 0 0 0 0 0 0 0 0 0 0 0 0 0 0
0 0 0 0 0 0 0 0 0 0 0 0 0 0 0 0 0 0 0 0 0 0 0 0 0 0 0 0 0 0 0 0 0 0
0 0 0 0 0 0 0 0 0 0 0 0 0 0 0 0 0 0 0 0 0 0 0 0 0 0 0 0 0 0 0 0 0 0
0 0 0 0 0 0 0 0 0 0 0 0 0 0 0 0 0 0 0 0 0 0 0 0 0 0 0 0 0 0 0 0 0 0
0 0 0 0 0 0 0 0 0 0 0 0 0 0 0 0 0 0 0 0 0 0 0 0 0 0 0 0 0 0 0 0 0 0
0 0 0 0 0 0 0 0 0 0 0 0 0 0 0 0 0 0 0 0 0 0 0 0 0 0 0 0 0 0 0 0 0 0
0 0 0 0 0 0 0 0 0 0 0 0 0 0 0 0 0 0 0 0 0 0 0 0 0 0 0 0 0 0 0 0 0;
#X coords 0 5 300 -5 600 200 1 0 0;
#X restore -49 -465 graph;
#X floatatom -311 -271 5 0 0 0 - - -;
#X obj -250 -176 gemhead;
#X obj -250 1 separator;
#X obj -250 205 translateXYZ;
#X obj -250 -129 scaleXYZ 1 1 1;
#X floatatom -219 -150 5 0 0 0 - - -;
#X floatatom -176 -150 5 0 0 0 - - -;
#X obj -250 -30 gemlist;
#X obj -250 -52 until;
#X msg -250 -76 2;
#X obj -250 -98 t b a;
#X obj -250 -195 tgl 15 1 empty empty empty 17 7 0 10 -262144 -1 -1
1 1;
#X msg -241 -250 0;
#X obj -241 -336 repeat 300;
#X obj -214 -250 f;
#X obj -176 -253 + 1;
#X obj -214 -292 b;
#X obj -241 -314 t b b;
#X obj -201 -387 bng 15 250 50 0 empty empty empty 17 7 0 10 -262144
-1 -1;
#X msg -311 -204 set \$1;
#X obj -224 124 tabread points3d;
#X obj -224 173 demux 1 2 3;
#X obj -311 -226 / 3;
#X msg -43 -214 0 \, destroy;
#X obj -201 -361 t b b;
#X msg -174 -283 0;
#X obj -250 230 sphere 0.2;
#X floatatom -148 -56 5 0 0 0 - - -;
#X obj -528 -280 print;
#X msg -266 -384 0;
#X msg -546 -347 ----------------;
#X obj -119 89 f;
#X obj -89 89 + 1;
#X obj -148 -28 * 3;
#X floatatom -148 -1 5 0 0 0 - - -;
#X obj -248 30 t a b b;
#X msg -105 67 0;
#X obj -426 -37 b;
#X obj -426 -15 print RENDER----;
#X obj -161 151 + 1;
#X obj -450 -128 spigot;
#X obj -416 -147 tgl 15 0 empty empty empty 17 7 0 10 -262144 -1 -1
0 1;
#X obj -426 -59 spigot;
#X obj -392 -78 tgl 15 0 empty empty empty 17 7 0 10 -262144 -1 -1
0 1;
#X obj 338 -153 spigot;
#X obj 372 -172 tgl 15 0 empty empty empty 17 7 0 10 -262144 -1 -1
0 1;
#X obj -163 291 print x;
#X obj -141 272 print y;
#X obj -102 227 print z;
#X obj -119 203 t b f;
#X obj -421 -430 random 4;
#X obj -421 -407 - 2;
#X obj -223 56 repeat;
#X obj 20 0 sel 1;
#X msg 20 22 0;
#X obj -309 -51 b;
#X obj 0 75 f;
#X obj 30 75 + 1;
#X obj -22 14 bng 15 250 50 0 empty empty empty 17 7 0 10 -262144 -1
-1;
#X obj 20 -23 == 2;
#X obj -131 249 print ss;
#X obj -49 -191 gemwin 10;
#X obj -385 110 b;
#X obj -385 88 spigot;
#X obj -351 69 tgl 15 0 empty empty empty 17 7 0 10 -262144 -1 -1 0
1;
#X obj -385 132 print REPEAT----;
#X msg -49 -237 dimen 1368 768 \, create \, 1;
#X connect 0 0 5 0;
#X connect 1 0 2 0;
#X connect 1 0 4 1;
#X connect 1 0 8 0;
#X connect 2 0 1 1;
#X connect 3 0 1 0;
#X connect 5 0 58 0;
#X connect 5 1 58 0;
#X connect 5 2 58 0;
#X connect 6 0 3 0;
#X connect 6 1 4 0;
#X connect 6 1 48 0;
#X connect 8 0 30 0;
#X connect 9 0 12 0;
#X connect 9 0 50 0;
#X connect 9 0 63 0;
#X connect 10 0 43 0;
#X connect 10 0 71 0;
#X connect 11 0 34 0;
#X connect 12 0 18 0;
#X connect 13 0 12 1;
#X connect 14 0 12 2;
#X connect 15 0 10 0;
#X connect 16 0 15 0;
#X connect 17 0 16 0;
#X connect 18 0 17 0;
#X connect 18 1 15 1;
#X connect 19 0 9 0;
#X connect 20 0 4 0;
#X connect 21 0 25 0;
#X connect 22 0 23 0;
#X connect 22 0 4 1;
#X connect 23 0 22 1;
#X connect 24 0 22 0;
#X connect 25 0 20 0;
#X connect 25 1 24 0;
#X connect 26 0 32 0;
#X connect 26 0 37 0;
#X connect 27 0 17 0;
#X connect 28 0 29 0;
#X connect 29 0 11 1;
#X connect 29 1 11 2;
#X connect 29 2 11 3;
#X connect 30 0 27 0;
#X connect 30 0 35 0;
#X connect 31 0 69 0;
#X connect 32 0 21 0;
#X connect 32 1 33 0;
#X connect 33 0 22 0;
#X connect 33 0 1 0;
#X connect 35 0 41 0;
#X connect 37 0 4 1;
#X connect 38 0 36 0;
#X connect 39 0 40 0;
#X connect 39 0 28 0;
#X connect 40 0 39 1;
#X connect 41 0 42 0;
#X connect 42 0 60 1;
#X connect 43 0 11 0;
#X connect 43 1 60 0;
#X connect 43 2 44 0;
#X connect 43 2 64 0;
#X connect 44 0 39 1;
#X connect 45 0 46 0;
#X connect 47 0 29 1;
#X connect 48 0 36 0;
#X connect 49 0 48 1;
#X connect 50 0 45 0;
#X connect 51 0 50 1;
#X connect 53 0 52 1;
#X connect 57 0 68 0;
#X connect 57 1 56 0;
#X connect 58 0 59 0;
#X connect 59 0 6 0;
#X connect 60 0 39 0;
#X connect 61 0 62 0;
#X connect 62 0 64 1;
#X connect 64 0 65 0;
#X connect 64 0 67 0;
#X connect 64 0 47 0;
#X connect 65 0 64 1;
#X connect 66 0 64 0;
#X connect 67 0 61 0;
#X connect 70 0 73 0;
#X connect 71 0 70 0;
#X connect 72 0 71 1;
#X connect 74 0 69 0;
